<svg xmlns="http://www.w3.org/2000/svg" viewBox="0 0 64 64">
  <defs>
    <linearGradient id="g" x1="10" y1="10" x2="54" y2="54">
      <stop stop-color="#B78BFF"/>
      <stop offset="1" stop-color="#9DFFB0"/>
    </linearGradient>
    <radialGradient id="gl" cx="32" cy="32" r="26">
      <stop stop-color="#9DFFB0" stop-opacity="0.25"/>
      <stop offset="1" stop-color="#000" stop-opacity="0"/>
    </radialGradient>
  </defs>
  <circle cx="32" cy="32" r="26" fill="url(#gl)"/>
  <path d="M26 10h12v6l-3 3v9c0 3 2 5 4 7 3 3 6 7 6 12 0 8-6 13-13 13S19 55 19 47c0-5 3-9 6-12 2-2 4-4 4-7v-9l-3-3v-6Z" fill="rgba(16,12,24,0.7)" stroke="url(#g)" stroke-width="3" stroke-linejoin="round"/>
  <path d="M24 44c2-4 6-7 8-7 3 0 6 2 8 7" stroke="#F5F4FF" stroke-opacity="0.55" stroke-width="2" stroke-linecap="round"/>
  <circle cx="26" cy="47" r="2" fill="#9DFFB0"/>
  <circle cx="38" cy="49" r="2" fill="#B78BFF"/>
</svg>